<?xml version="1.0" encoding="UTF-8"?>
<svg id="Layer_1" data-name="Layer 1" xmlns="http://www.w3.org/2000/svg" viewBox="0 0 153.07 104.35">
  <defs>
    <style>
      .cls-1 {
        fill: #f15a29;
      }

      .cls-2 {
        fill: #fbb040;
      }

      .cls-3 {
        fill: #ef4136;
      }

      .cls-4 {
        opacity: .37;
      }

      .cls-5 {
        opacity: .65;
      }

      .cls-6 {
        opacity: .8;
      }
    </style>
  </defs>
  <g class="cls-5">
    <polygon class="cls-3" points="29.93 80.6 11.62 46.27 40.23 63.44 29.93 80.6"/>
    <polygon class="cls-3" points="50.57 46.22 11.66 46.22 40.26 63.38 50.57 46.22"/>
    <polygon class="cls-3" points="29.95 80.58 68.85 80.58 40.25 63.41 29.95 80.58"/>
    <polygon class="cls-3" points="50.58 46.19 68.89 80.52 40.28 63.36 50.58 46.19"/>
  </g>
  <g class="cls-5">
    <polygon class="cls-3" points="121.38 80.64 139.68 46.31 111.08 63.48 121.38 80.64"/>
    <polygon class="cls-3" points="100.74 46.26 139.65 46.25 111.05 63.42 100.74 46.26"/>
    <polygon class="cls-3" points="121.36 80.61 82.45 80.62 111.06 63.45 121.36 80.61"/>
    <polygon class="cls-3" points="100.73 46.23 82.42 80.56 111.03 63.4 100.73 46.23"/>
  </g>
  <g class="cls-4">
    <polygon class="cls-2" points="122.21 104.34 153.07 80.64 119.93 84.45 122.21 104.34"/>
    <polygon class="cls-2" points="117.64 64.49 153.07 80.58 119.92 84.38 117.64 64.49"/>
    <polygon class="cls-2" points="122.21 104.3 86.78 88.22 119.93 84.41 122.21 104.3"/>
    <polygon class="cls-2" points="117.64 64.46 86.77 88.16 119.92 84.35 117.64 64.46"/>
  </g>
  <g class="cls-4">
    <polygon class="cls-2" points="30.86 104.35 0 80.66 33.15 84.46 30.86 104.35"/>
    <polygon class="cls-2" points="35.44 64.51 0 80.6 33.15 84.4 35.44 64.51"/>
    <polygon class="cls-2" points="30.87 104.32 66.29 88.23 33.15 84.43 30.87 104.32"/>
    <polygon class="cls-2" points="35.44 64.48 66.3 88.17 33.16 84.37 35.44 64.48"/>
  </g>
  <g class="cls-6">
    <polygon class="cls-1" points="40.23 60.26 36.95 21.49 56.47 48.55 40.23 60.26"/>
    <polygon class="cls-1" points="72.76 36.8 37 21.45 56.52 48.51 72.76 36.8"/>
    <polygon class="cls-1" points="40.26 60.24 76.01 75.59 56.49 48.53 40.26 60.24"/>
    <polygon class="cls-1" points="72.78 36.78 76.06 75.55 56.54 48.49 72.78 36.78"/>
  </g>
  <g class="cls-6">
    <polygon class="cls-1" points="113.19 60.27 116.46 21.5 96.95 48.56 113.19 60.27"/>
    <polygon class="cls-1" points="80.66 36.81 116.41 21.46 96.9 48.52 80.66 36.81"/>
    <polygon class="cls-1" points="113.16 60.25 77.41 75.6 96.92 48.54 113.16 60.25"/>
    <polygon class="cls-1" points="80.63 36.79 77.36 75.56 96.87 48.5 80.63 36.79"/>
  </g>
  <g>
    <polygon class="cls-1" points="51.48 40.68 76.32 0 76 40.87 51.48 40.68"/>
    <polygon class="cls-1" points="100.6 41.06 76.39 0 76.08 40.87 100.6 41.06"/>
    <polygon class="cls-1" points="51.51 40.68 75.73 81.74 76.04 40.87 51.51 40.68"/>
    <polygon class="cls-1" points="100.64 41.06 75.8 81.75 76.12 40.87 100.64 41.06"/>
  </g>
</svg>