<?xml version="1.0" encoding="UTF-8"?>
<svg id="Layer_1" data-name="Layer 1" xmlns="http://www.w3.org/2000/svg" viewBox="0 0 45.08 30.73">
  <defs>
    <style>
      .cls-1 {
        fill: #f15a29;
      }

      .cls-2 {
        fill: #fbb040;
      }

      .cls-3 {
        fill: #ef4136;
      }

      .cls-4 {
        opacity: .37;
      }

      .cls-5 {
        opacity: .65;
      }

      .cls-6 {
        opacity: .8;
      }
    </style>
  </defs>
  <g class="cls-5">
    <polygon class="cls-3" points="8.81 23.74 3.42 13.63 11.85 18.68 8.81 23.74"/>
    <polygon class="cls-3" points="14.89 13.61 3.43 13.61 11.86 18.67 14.89 13.61"/>
    <polygon class="cls-3" points="8.82 23.73 20.28 23.73 11.85 18.68 8.82 23.73"/>
    <polygon class="cls-3" points="14.9 13.6 20.29 23.72 11.86 18.66 14.9 13.6"/>
  </g>
  <g class="cls-5">
    <polygon class="cls-3" points="35.75 23.75 41.14 13.64 32.71 18.69 35.75 23.75"/>
    <polygon class="cls-3" points="29.67 13.62 41.13 13.62 32.7 18.68 29.67 13.62"/>
    <polygon class="cls-3" points="35.74 23.74 24.28 23.74 32.71 18.69 35.74 23.74"/>
    <polygon class="cls-3" points="29.67 13.62 24.27 23.73 32.7 18.67 29.67 13.62"/>
  </g>
  <g class="cls-4">
    <polygon class="cls-2" points="35.99 30.73 45.08 23.75 35.32 24.87 35.99 30.73"/>
    <polygon class="cls-2" points="34.65 18.99 45.08 23.73 35.32 24.85 34.65 18.99"/>
    <polygon class="cls-2" points="35.99 30.72 25.56 25.98 35.32 24.86 35.99 30.72"/>
    <polygon class="cls-2" points="34.65 18.99 25.56 25.96 35.32 24.84 34.65 18.99"/>
  </g>
  <g class="cls-4">
    <polygon class="cls-2" points="9.09 30.73 0 23.75 9.76 24.88 9.09 30.73"/>
    <polygon class="cls-2" points="10.44 19 0 23.74 9.76 24.86 10.44 19"/>
    <polygon class="cls-2" points="9.09 30.72 19.52 25.99 9.76 24.87 9.09 30.72"/>
    <polygon class="cls-2" points="10.44 18.99 19.53 25.97 9.77 24.85 10.44 18.99"/>
  </g>
  <g class="cls-6">
    <polygon class="cls-1" points="11.85 17.75 10.88 6.33 16.63 14.3 11.85 17.75"/>
    <polygon class="cls-1" points="21.43 10.84 10.9 6.32 16.65 14.29 21.43 10.84"/>
    <polygon class="cls-1" points="11.86 17.74 22.39 22.26 16.64 14.29 11.86 17.74"/>
    <polygon class="cls-1" points="21.44 10.83 22.4 22.25 16.65 14.28 21.44 10.83"/>
  </g>
  <g class="cls-6">
    <polygon class="cls-1" points="33.34 17.75 34.3 6.33 28.55 14.3 33.34 17.75"/>
    <polygon class="cls-1" points="23.76 10.84 34.29 6.32 28.54 14.29 23.76 10.84"/>
    <polygon class="cls-1" points="33.33 17.74 22.8 22.27 28.55 14.3 33.33 17.74"/>
    <polygon class="cls-1" points="23.75 10.84 22.78 22.25 28.53 14.28 23.75 10.84"/>
  </g>
  <g>
    <polygon class="cls-1" points="15.16 11.98 22.48 0 22.38 12.04 15.16 11.98"/>
    <polygon class="cls-1" points="29.63 12.09 22.5 0 22.41 12.04 29.63 12.09"/>
    <polygon class="cls-1" points="15.17 11.98 22.3 24.08 22.4 12.04 15.17 11.98"/>
    <polygon class="cls-1" points="29.64 12.09 22.33 24.08 22.42 12.04 29.64 12.09"/>
  </g>
</svg>